<svg xmlns="http://www.w3.org/2000/svg" width="960" height="607" class="large">
    <defs>
        <style/>
    </defs>
    <style>@keyframes animation-gauge{0%{stroke-dasharray:0 329}}@keyframes animation-rainbow{0%,to{color:#7f00ff;fill:#7f00ff}14%{color:#a933ff;fill:#a933ff}29%{color:#007fff;fill:#007fff}43%{color:#00ff7f;fill:#00ff7f}57%{color:#ff0;fill:#ff0}71%{color:#ff7f00;fill:#ff7f00}86%{color:red;fill:red}}svg{font-family:-apple-system,BlinkMacSystemFont,Segoe UI,Helvetica,Arial,sans-serif,Apple Color Emoji,Segoe UI Emoji;color:#777}h2,h3{margin:8px 0 2px;padding:0;color:#0366d6;font-weight:400}h2 svg,h3 svg{fill:currentColor}h2{font-size:16px}h3,svg{font-size:14px}section&gt;.field{margin-left:5px;margin-right:5px}.field{display:flex;align-items:center;margin-bottom:2px;white-space:nowrap}.field svg{margin:0 8px;fill:#959da5;flex-shrink:0}.row{display:flex;flex-wrap:wrap}.row section{flex:1 1 0}.margin-bottom{margin-bottom:16px}.margin-lr-auto{margin-left:auto;margin-right:auto}.diff-handle{color:#58a6ff;max-width:200px;text-overflow:ellipsis;overflow:hidden}.large .diff-handle{max-width:400px}.diff-box{display:inline-block;width:8px;height:8px;margin-left:1px;background-color:rgba(110,118,129,.4);border:1px solid rgba(246,240,251,.1)}.diff-box:first-child{margin-left:9px}.diff-box.added{background-color:#3fb950}.diff-box.deleted{background-color:#da3633}.diff-stats,code,span.code{font-family:SFMono-Regular,Consolas,Liberation Mono,Menlo,monospace}.diff-stats{margin-left:4px;font-weight:700;font-size:12px;white-space:nowrap}.added{color:#3fb950}.deleted{color:#da3633}code,span.code{background-color:#7777771f;padding:1px 5px;font-size:80%;border-radius:6px;color:#777}code{display:inline-block}span.code{margin:0 4px -3px}:root{--color-calendar-graph-day-bg:#ebedf0;--color-calendar-graph-day-border:rgba(27,31,35,0.06);--color-calendar-graph-day-L1-bg:#9be9a8;--color-calendar-graph-day-L2-bg:#40c463;--color-calendar-graph-day-L3-bg:#30a14e;--color-calendar-graph-day-L4-bg:#216e39;--color-calendar-halloween-graph-day-L1-bg:#ffee4a;--color-calendar-halloween-graph-day-L2-bg:#ffc501;--color-calendar-halloween-graph-day-L3-bg:#fe9600;--color-calendar-halloween-graph-day-L4-bg:#03001c;--color-calendar-winter-graph-day-L1-bg:#0a3069;--color-calendar-winter-graph-day-L2-bg:#0969da;--color-calendar-winter-graph-day-L3-bg:#54aeff;--color-calendar-winter-graph-day-L4-bg:#b6e3ff;--color-calendar-graph-day-L4-border:rgba(27,31,35,0.06);--color-calendar-graph-day-L3-border:rgba(27,31,35,0.06);--color-calendar-graph-day-L2-border:rgba(27,31,35,0.06);--color-calendar-graph-day-L1-border:rgba(27,31,35,0.06)}#metrics-end{width:100%}</style>
    <style/>
    <foreignObject x="0" y="0" width="100%" height="100%">
        <div xmlns="http://www.w3.org/1999/xhtml" xmlns:xlink="http://www.w3.org/1999/xlink" class="items-wrapper">
            <section>
                <h2 class="field">
                    <svg xmlns="http://www.w3.org/2000/svg" viewBox="0 0 16 16" width="16" height="16">
                        <path fill-rule="evenodd" d="M2.75 1.5a.25.25 0 00-.25.25v12.5c0 .138.112.25.25.25h10.5a.25.25 0 00.25-.25V4.664a.25.25 0 00-.073-.177l-2.914-2.914a.25.25 0 00-.177-.073H2.75zM1 1.75C1 .784 1.784 0 2.75 0h7.586c.464 0 .909.184 1.237.513l2.914 2.914c.329.328.513.773.513 1.237v9.586A1.75 1.75 0 0113.25 16H2.75A1.75 1.75 0 011 14.25V1.75zm7 1.5a.75.75 0 01.75.75v1.5h1.5a.75.75 0 010 1.5h-1.5v1.5a.75.75 0 01-1.5 0V7h-1.5a.75.75 0 010-1.5h1.5V4A.75.75 0 018 3.25zm-3 8a.75.75 0 01.75-.75h4.5a.75.75 0 010 1.5h-4.5a.75.75 0 01-.75-.75z"/>
                    </svg>
                    Lines of code pushed
                </h2>
                <div class="row">
                    <section>
                        <div class="field">
                            <svg xmlns="http://www.w3.org/2000/svg" viewBox="0 0 16 16" width="16" height="16">
                                <path fill-rule="evenodd" d="M8 5.5a2.5 2.5 0 100 5 2.5 2.5 0 000-5zM4 8a4 4 0 118 0 4 4 0 01-8 0z"/>
                            </svg>
                            <span class="diff-handle">jayvdb/SunQA</span>
                        </div>
                        <div class="field">
                            <svg xmlns="http://www.w3.org/2000/svg" viewBox="0 0 16 16" width="16" height="16">
                                <path fill-rule="evenodd" d="M8 5.5a2.5 2.5 0 100 5 2.5 2.5 0 000-5zM4 8a4 4 0 118 0 4 4 0 01-8 0z"/>
                            </svg>
                            <span class="diff-handle">jayvdb/gitpy</span>
                        </div>
                        <div class="field">
                            <svg xmlns="http://www.w3.org/2000/svg" viewBox="0 0 16 16" width="16" height="16">
                                <path fill-rule="evenodd" d="M8 5.5a2.5 2.5 0 100 5 2.5 2.5 0 000-5zM4 8a4 4 0 118 0 4 4 0 01-8 0z"/>
                            </svg>
                            <span class="diff-handle">jayvdb/nose3</span>
                        </div>
                        <div class="field">
                            <svg xmlns="http://www.w3.org/2000/svg" viewBox="0 0 16 16" width="16" height="16">
                                <path fill-rule="evenodd" d="M8 5.5a2.5 2.5 0 100 5 2.5 2.5 0 000-5zM4 8a4 4 0 118 0 4 4 0 01-8 0z"/>
                            </svg>
                            <span class="diff-handle">jayvdb/jayvdb</span>
                        </div>
                        <div class="field">
                            <svg xmlns="http://www.w3.org/2000/svg" viewBox="0 0 16 16" width="16" height="16">
                                <path fill-rule="evenodd" d="M8 5.5a2.5 2.5 0 100 5 2.5 2.5 0 000-5zM4 8a4 4 0 118 0 4 4 0 01-8 0z"/>
                            </svg>
                            <span class="diff-handle">jayvdb/pypidb</span>
                        </div>
                        <div class="field">
                            <svg xmlns="http://www.w3.org/2000/svg" viewBox="0 0 16 16" width="16" height="16">
                                <path fill-rule="evenodd" d="M8 5.5a2.5 2.5 0 100 5 2.5 2.5 0 000-5zM4 8a4 4 0 118 0 4 4 0 01-8 0z"/>
                            </svg>
                            <span class="diff-handle">jayvdb/python3-libclang</span>
                        </div>
                        <div class="field">
                            <svg xmlns="http://www.w3.org/2000/svg" viewBox="0 0 16 16" width="16" height="16">
                                <path fill-rule="evenodd" d="M8 5.5a2.5 2.5 0 100 5 2.5 2.5 0 000-5zM4 8a4 4 0 118 0 4 4 0 01-8 0z"/>
                            </svg>
                            <span class="diff-handle">jayvdb/LoklakAndroidApp</span>
                        </div>
                        <div class="field">
                            <svg xmlns="http://www.w3.org/2000/svg" viewBox="0 0 16 16" width="16" height="16">
                                <path fill-rule="evenodd" d="M8 5.5a2.5 2.5 0 100 5 2.5 2.5 0 000-5zM4 8a4 4 0 118 0 4 4 0 01-8 0z"/>
                            </svg>
                            <span class="diff-handle">jayvdb/tox-constraints</span>
                        </div>
                        <div class="field">
                            <svg xmlns="http://www.w3.org/2000/svg" viewBox="0 0 16 16" width="16" height="16">
                                <path fill-rule="evenodd" d="M8 5.5a2.5 2.5 0 100 5 2.5 2.5 0 000-5zM4 8a4 4 0 118 0 4 4 0 01-8 0z"/>
                            </svg>
                            <span class="diff-handle">jayvdb/django-dunder</span>
                        </div>
                        <div class="field">
                            <svg xmlns="http://www.w3.org/2000/svg" viewBox="0 0 16 16" width="16" height="16">
                                <path fill-rule="evenodd" d="M8 5.5a2.5 2.5 0 100 5 2.5 2.5 0 000-5zM4 8a4 4 0 118 0 4 4 0 01-8 0z"/>
                            </svg>
                            <span class="diff-handle">jayvdb/flake8-putty</span>
                        </div>
                    </section>
                    <section>
                        <div class="field">
                            <div class="diff-box added"></div>
                            <div class="diff-box added"></div>
                            <div class="diff-box added"></div>
                            <div class="diff-box deleted"></div>
                            <div class="diff-box deleted"></div>
                            <div class="diff-stats">
                                <span class="added">  +341k</span>
                                <span class="deleted">  -242k</span>
                            </div>
                            <span> </span>
                        </div>
                        <div class="field">
                            <div class="diff-box added"></div>
                            <div class="diff-box added"></div>
                            <div class="diff-box added"></div>
                            <div class="diff-box deleted"></div>
                            <div class="diff-box deleted"></div>
                            <div class="diff-stats">
                                <span class="added">  +143k</span>
                                <span class="deleted">  -142k</span>
                            </div>
                            <span> </span>
                        </div>
                        <div class="field">
                            <div class="diff-box added"></div>
                            <div class="diff-box added"></div>
                            <div class="diff-box added"></div>
                            <div class="diff-box deleted"></div>
                            <div class="diff-box deleted"></div>
                            <div class="diff-stats">
                                <span class="added"> +71.9k</span>
                                <span class="deleted"> -36.1k</span>
                            </div>
                            <span> </span>
                        </div>
                        <div class="field">
                            <div class="diff-box added"></div>
                            <div class="diff-box added"></div>
                            <div class="diff-box added"></div>
                            <div class="diff-box deleted"></div>
                            <div class="diff-box deleted"></div>
                            <div class="diff-stats">
                                <span class="added"> +16.8k</span>
                                <span class="deleted"> -16.8k</span>
                            </div>
                            <span> </span>
                        </div>
                        <div class="field">
                            <div class="diff-box added"></div>
                            <div class="diff-box added"></div>
                            <div class="diff-box added"></div>
                            <div class="diff-box added"></div>
                            <div class="diff-box deleted"></div>
                            <div class="diff-stats">
                                <span class="added"> +12.9k</span>
                                <span class="deleted">   -818</span>
                            </div>
                            <span> </span>
                        </div>
                        <div class="field">
                            <div class="diff-box added"></div>
                            <div class="diff-box added"></div>
                            <div class="diff-box added"></div>
                            <div class="diff-box added"></div>
                            <div class="diff-box deleted"></div>
                            <div class="diff-stats">
                                <span class="added"> +6.27k</span>
                                <span class="deleted">   -397</span>
                            </div>
                            <span> </span>
                        </div>
                        <div class="field">
                            <div class="diff-box added"></div>
                            <div class="diff-box added"></div>
                            <div class="diff-box added"></div>
                            <div class="diff-box added"></div>
                            <div class="diff-box deleted"></div>
                            <div class="diff-stats">
                                <span class="added"> +6.21k</span>
                                <span class="deleted">    -45</span>
                            </div>
                            <span> </span>
                        </div>
                        <div class="field">
                            <div class="diff-box added"></div>
                            <div class="diff-box added"></div>
                            <div class="diff-box added"></div>
                            <div class="diff-box deleted"></div>
                            <div class="diff-box deleted"></div>
                            <div class="diff-stats">
                                <span class="added"> +2.55k</span>
                                <span class="deleted">   -706</span>
                            </div>
                            <span> </span>
                        </div>
                        <div class="field">
                            <div class="diff-box added"></div>
                            <div class="diff-box added"></div>
                            <div class="diff-box added"></div>
                            <div class="diff-box added"></div>
                            <div class="diff-box deleted"></div>
                            <div class="diff-stats">
                                <span class="added"> +2.52k</span>
                                <span class="deleted">   -352</span>
                            </div>
                            <span> </span>
                        </div>
                        <div class="field">
                            <div class="diff-box added"></div>
                            <div class="diff-box added"></div>
                            <div class="diff-box added"></div>
                            <div class="diff-box added"></div>
                            <div class="diff-box deleted"></div>
                            <div class="diff-stats">
                                <span class="added"> +2.38k</span>
                                <span class="deleted">   -542</span>
                            </div>
                            <span> </span>
                        </div>
                    </section>
                </div>
                <div class="row margin-bottom">
                    <h3 class="margin-lr-auto">Diff history</h3>
                    <svg xmlns="http://www.w3.org/2000/svg" width="480" height="315">
                        <g transform="translate(0,276)" fill="none" font-size="10" font-family="sans-serif" text-anchor="middle">
                            <path class="domain" stroke="currentColor" d="M39.5,6V0.5H441.5V6"/>
                            <g class="tick" opacity="1" transform="translate(64.9192037470726,0)">
                                <line stroke="currentColor" y2="6"/>
                                <text fill="currentColor" y="9" dy="0.71em" transform="translate(-5,5) rotate(-45)" style="text-anchor: end;">February</text>
                            </g>
                            <g class="tick" opacity="1" transform="translate(91.27985948477752,0)">
                                <line stroke="currentColor" y2="6"/>
                                <text fill="currentColor" y="9" dy="0.71em" transform="translate(-5,5) rotate(-45)" style="text-anchor: end;">March</text>
                            </g>
                            <g class="tick" opacity="1" transform="translate(120.46487119437938,0)">
                                <line stroke="currentColor" y2="6"/>
                                <text fill="currentColor" y="9" dy="0.71em" transform="translate(-5,5) rotate(-45)" style="text-anchor: end;">April</text>
                            </g>
                            <g class="tick" opacity="1" transform="translate(148.70843091334896,0)">
                                <line stroke="currentColor" y2="6"/>
                                <text fill="currentColor" y="9" dy="0.71em" transform="translate(-5,5) rotate(-45)" style="text-anchor: end;">May</text>
                            </g>
                            <g class="tick" opacity="1" transform="translate(177.89344262295083,0)">
                                <line stroke="currentColor" y2="6"/>
                                <text fill="currentColor" y="9" dy="0.71em" transform="translate(-5,5) rotate(-45)" style="text-anchor: end;">June</text>
                            </g>
                            <g class="tick" opacity="1" transform="translate(206.13700234192038,0)">
                                <line stroke="currentColor" y2="6"/>
                                <text fill="currentColor" y="9" dy="0.71em" transform="translate(-5,5) rotate(-45)" style="text-anchor: end;">July</text>
                            </g>
                            <g class="tick" opacity="1" transform="translate(235.32201405152225,0)">
                                <line stroke="currentColor" y2="6"/>
                                <text fill="currentColor" y="9" dy="0.71em" transform="translate(-5,5) rotate(-45)" style="text-anchor: end;">August</text>
                            </g>
                            <g class="tick" opacity="1" transform="translate(264.5070257611241,0)">
                                <line stroke="currentColor" y2="6"/>
                                <text fill="currentColor" y="9" dy="0.71em" transform="translate(-5,5) rotate(-45)" style="text-anchor: end;">September</text>
                            </g>
                            <g class="tick" opacity="1" transform="translate(292.7505854800937,0)">
                                <line stroke="currentColor" y2="6"/>
                                <text fill="currentColor" y="9" dy="0.71em" transform="translate(-5,5) rotate(-45)" style="text-anchor: end;">October</text>
                            </g>
                            <g class="tick" opacity="1" transform="translate(321.93559718969556,0)">
                                <line stroke="currentColor" y2="6"/>
                                <text fill="currentColor" y="9" dy="0.71em" transform="translate(-5,5) rotate(-45)" style="text-anchor: end;">November</text>
                            </g>
                            <g class="tick" opacity="1" transform="translate(350.17915690866505,0)">
                                <line stroke="currentColor" y2="6"/>
                                <text fill="currentColor" y="9" dy="0.71em" transform="translate(-5,5) rotate(-45)" style="text-anchor: end;">December</text>
                            </g>
                            <g class="tick" opacity="1" transform="translate(379.364168618267,0)">
                                <line stroke="currentColor" y2="6"/>
                                <text fill="currentColor" y="9" dy="0.71em" transform="translate(-5,5) rotate(-45)" style="text-anchor: end;">2026</text>
                            </g>
                            <g class="tick" opacity="1" transform="translate(408.54918032786884,0)">
                                <line stroke="currentColor" y2="6"/>
                                <text fill="currentColor" y="9" dy="0.71em" transform="translate(-5,5) rotate(-45)" style="text-anchor: end;">February</text>
                            </g>
                            <g class="tick" opacity="1" transform="translate(434.90983606557376,0)">
                                <line stroke="currentColor" y2="6"/>
                                <text fill="currentColor" y="9" dy="0.71em" transform="translate(-5,5) rotate(-45)" style="text-anchor: end;">March</text>
                            </g>
                        </g>
                        <g transform="translate(39,0)" fill="none" font-size="10" font-family="sans-serif" text-anchor="end">
                            <path class="domain" stroke="currentColor" d="M-6,5.5H0.5V276.5H-6"/>
                            <g class="tick" opacity="1" transform="translate(0,36.769230769230774)">
                                <line stroke="currentColor" x2="-6"/>
                                <text fill="currentColor" x="-9" dy="0.32em">60</text>
                            </g>
                            <g class="tick" opacity="1" transform="translate(0,71.51282051282053)">
                                <line stroke="currentColor" x2="-6"/>
                                <text fill="currentColor" x="-9" dy="0.32em">40</text>
                            </g>
                            <g class="tick" opacity="1" transform="translate(0,106.25641025641025)">
                                <line stroke="currentColor" x2="-6"/>
                                <text fill="currentColor" x="-9" dy="0.32em">20</text>
                            </g>
                            <g class="tick" opacity="1" transform="translate(0,141)">
                                <line stroke="currentColor" x2="-6"/>
                                <text fill="currentColor" x="-9" dy="0.32em">0.0</text>
                            </g>
                            <g class="tick" opacity="1" transform="translate(0,175.74358974358975)">
                                <line stroke="currentColor" x2="-6"/>
                                <text fill="currentColor" x="-9" dy="0.32em">−20</text>
                            </g>
                            <g class="tick" opacity="1" transform="translate(0,210.4871794871795)">
                                <line stroke="currentColor" x2="-6"/>
                                <text fill="currentColor" x="-9" dy="0.32em">−40</text>
                            </g>
                            <g class="tick" opacity="1" transform="translate(0,245.2307692307692)">
                                <line stroke="currentColor" x2="-6"/>
                                <text fill="currentColor" x="-9" dy="0.32em">−60</text>
                            </g>
                        </g>
                        <path d="M39,140.5L45.59,140.5L52.18,140.5L58.77,140.5L65.361,140.5L71.951,140.5L78.541,140.5L85.131,140.5L91.721,140.5L98.311,140.5L104.902,140.5L111.492,140.5L118.082,140.5L124.672,140.5L131.262,140.5L137.852,140.5L144.443,140.5L151.033,140.5L157.623,140.5L164.213,140.5L170.803,140.5L177.393,140.5L183.984,140.5L190.574,140.5L197.164,140.5L203.754,140.5L210.344,140.5L216.934,140.5L223.525,140.5L230.115,140.5L236.705,140.5L243.295,140.5L249.885,140.5L256.475,140.5L263.066,140.5L269.656,140.5L276.246,140.5L282.836,140.5L289.426,140.5L296.016,140.5L302.607,140.5L309.197,140.5L315.787,140.5L322.377,140.5L328.967,140.5L335.557,140.5L342.148,140.5L348.738,140.5L355.328,140.5L361.918,140.5L368.508,140.5L375.098,140.5L381.689,140.5L388.279,140.5L394.869,140.5L401.459,140.5L408.049,140.5L414.639,140.5L421.23,140.5L427.82,140.5L434.41,140.5L441,140.5L441,126.603L434.41,71.013L427.82,55.378L421.23,67.538L414.639,60.59L408.049,71.013L401.459,72.75L394.869,72.75L388.279,62.327L381.689,58.853L375.098,69.276L368.508,58.853L361.918,38.006L355.328,62.327L348.738,74.487L342.148,71.013L335.557,81.436L328.967,69.276L322.377,76.224L315.787,65.801L309.197,74.487L302.607,69.276L296.016,41.481L289.426,36.269L282.836,38.006L276.246,41.481L269.656,36.269L263.066,43.218L256.475,44.955L249.885,43.218L243.295,44.955L236.705,51.904L230.115,55.378L223.525,29.321L216.934,31.058L210.344,44.955L203.754,38.006L197.164,44.955L190.574,32.795L183.984,44.955L177.393,38.006L170.803,43.218L164.213,31.058L157.623,29.321L151.033,27.583L144.443,46.692L137.852,57.115L131.262,39.744L124.672,41.481L118.082,31.058L111.492,22.372L104.902,11.949L98.311,15.423L91.721,22.372L85.131,22.372L78.541,13.686L71.951,18.897L65.361,22.372L58.77,18.897L52.18,11.949L45.59,5L39,15.423Z" fill="rgb(63, 185, 80)"/>
                        <path d="M39,140.5L45.59,140.5L52.18,140.5L58.77,140.5L65.361,140.5L71.951,140.5L78.541,140.5L85.131,140.5L91.721,140.5L98.311,140.5L104.902,140.5L111.492,140.5L118.082,140.5L124.672,140.5L131.262,140.5L137.852,140.5L144.443,140.5L151.033,140.5L157.623,140.5L164.213,140.5L170.803,140.5L177.393,140.5L183.984,140.5L190.574,140.5L197.164,140.5L203.754,140.5L210.344,140.5L216.934,140.5L223.525,140.5L230.115,140.5L236.705,140.5L243.295,140.5L249.885,140.5L256.475,140.5L263.066,140.5L269.656,140.5L276.246,140.5L282.836,140.5L289.426,140.5L296.016,140.5L302.607,140.5L309.197,140.5L315.787,140.5L322.377,140.5L328.967,140.5L335.557,140.5L342.148,140.5L348.738,140.5L355.328,140.5L361.918,140.5L368.508,140.5L375.098,140.5L381.689,140.5L388.279,140.5L394.869,140.5L401.459,140.5L408.049,140.5L414.639,140.5L421.23,140.5L427.82,140.5L434.41,140.5L441,140.5L441,154.397L434.41,209.987L427.82,225.622L421.23,213.462L414.639,220.41L408.049,209.987L401.459,208.25L394.869,208.25L388.279,218.673L381.689,222.147L375.098,211.724L368.508,222.147L361.918,242.994L355.328,218.673L348.738,206.513L342.148,209.987L335.557,199.564L328.967,211.724L322.377,204.776L315.787,215.199L309.197,206.513L302.607,211.724L296.016,239.519L289.426,244.731L282.836,242.994L276.246,239.519L269.656,244.731L263.066,237.782L256.475,236.045L249.885,237.782L243.295,236.045L236.705,229.096L230.115,225.622L223.525,251.679L216.934,249.942L210.344,236.045L203.754,242.994L197.164,236.045L190.574,248.205L183.984,236.045L177.393,242.994L170.803,237.782L164.213,249.942L157.623,251.679L151.033,253.417L144.443,234.308L137.852,223.885L131.262,241.256L124.672,239.519L118.082,249.942L111.492,258.628L104.902,269.051L98.311,265.577L91.721,258.628L85.131,258.628L78.541,267.314L71.951,262.103L65.361,258.628L58.77,262.103L52.18,269.051L45.59,276L39,265.577Z" fill="rgb(218, 54, 51)"/>
                    </svg>
                </div>
            </section>
        </div>
        <div xmlns="http://www.w3.org/1999/xhtml" id="metrics-end"></div>
    </foreignObject>
</svg>